<svg width="36" height="28" viewBox="0 0 36 28" fill="none" xmlns="http://www.w3.org/2000/svg">
<path d="M1.98725 19.234L12.2838 15.4155V18.9983L6.35974 20.9783C5.44987 21.3428 5.27184 21.6052 5.70152 22.204C6.21874 22.6754 8.05237 22.5811 9.1337 22.204L12.2838 20.9783V24.0896C11.1554 24.3536 9.49415 24.4196 8.80458 24.4196C5.35046 24.4355 1.45529 23.1818 0.811843 22.5811C-0.551602 21.3082 -0.222454 20.0826 1.98725 19.234Z" fill="white"/>
<path d="M13.4592 0V25.6453L19.1951 27.4839V5.7042C19.2929 4.91505 19.4783 4.59759 20.2765 4.4785C20.8435 4.42085 21.6353 5.27542 21.593 5.7042V15.4155C22.3555 15.8682 22.8744 16.0105 23.9438 16.0755C26.7029 15.8653 27.9303 15.1586 28.1282 10.2298C28.148 6.75516 27.3161 5.16113 23.9438 3.11138C20.0665 1.39509 17.7454 0.772127 13.4592 0Z" fill="white"/>
<path d="M20.2765 21.5911V18.0554C22.0782 17.5078 23.1478 17.2589 25.3072 17.0655C27.9402 16.8296 30.7141 16.8769 34.8985 18.6211C36.168 19.1503 37.0613 21.1668 33.347 22.5811L20.2765 27.201V23.7125L29.7738 20.4125C30.9097 20.0075 30.9962 19.4697 30.2439 19.234C29.2096 18.8569 28.1753 18.904 27.1879 19.234L20.2765 21.5911Z" fill="white"/>
</svg>
